<?xml version="1.0" encoding="UTF-8" standalone="no"?><!DOCTYPE svg PUBLIC "-//W3C//DTD SVG 1.1//EN" "http://www.w3.org/Graphics/SVG/1.1/DTD/svg11.dtd"><svg width="100%" height="100%" viewBox="0 0 842 1616" version="1.1" xmlns="http://www.w3.org/2000/svg" xmlns:xlink="http://www.w3.org/1999/xlink" xml:space="preserve" xmlns:serif="http://www.serif.com/" style="fill-rule:evenodd;clip-rule:evenodd;stroke-linejoin:round;stroke-miterlimit:2;"><path d="M413.399,0c60.79,0 106.99,6.991 138.6,20.972c31.611,13.982 59.574,29.483 83.89,46.504c14.59,8.511 26.443,14.893 35.562,19.149c9.118,4.255 17.933,6.383 26.443,6.383c12.158,0 20.972,-6.687 26.443,-20.061c5.471,-13.374 10.03,-33.434 13.678,-60.182l41.945,0c-1.216,20.668 -2.736,45.288 -4.559,73.859c-1.824,28.571 -3.039,66.261 -3.647,113.069c-0.608,46.808 -0.912,108.51 -0.912,185.104l-41.945,0c-3.647,-58.358 -16.413,-114.285 -38.297,-167.779c-21.884,-53.495 -53.799,-97.263 -95.744,-131.306c-41.945,-34.042 -96.959,-51.063 -165.044,-51.063c-64.437,0 -117.628,19.453 -159.573,58.358c-41.945,38.905 -62.917,89.969 -62.917,153.19c0,54.711 13.982,100.607 41.945,137.689c27.963,37.082 65.349,70.516 112.157,100.303c46.808,29.787 97.567,61.701 152.278,95.744c63.221,38.905 119.452,77.507 168.691,115.804c49.24,38.297 88.145,80.546 116.716,126.746c28.571,46.2 42.857,102.127 42.857,167.779c0,77.811 -17.629,142.248 -52.887,193.311c-35.258,51.063 -82.066,89.361 -140.424,114.892c-58.358,25.532 -143.224,23.974 -143.224,23.974c0,0 80.587,-5.27 123.814,-41.298c93.084,-77.581 92.745,-183.559 91.764,-201.984c-2.648,-49.777 -24.903,-111.055 -55.472,-145.686c-29.126,-32.997 -78.28,-77.858 -120.833,-110.077c-42.553,-32.219 -92.4,-65.349 -149.543,-99.391c-57.142,-35.258 -110.637,-71.124 -160.485,-107.598c-49.848,-36.474 -89.665,-78.723 -119.452,-126.746c-29.787,-48.024 -44.68,-106.078 -44.68,-174.162c0,-71.732 16.109,-131.002 48.328,-177.81c32.219,-46.808 74.467,-81.458 126.746,-103.95c52.279,-22.492 108.206,-33.738 167.779,-33.738Z" style="fill:#f3f3f3;fill-rule:nonzero;"/><path d="M320.779,1322.441c0,0 -234.457,-7.833 -302.2,-186.621c-50.546,-133.402 15.153,-254.343 42.128,-280.654c37.762,-36.831 85.802,-62.127 140.348,-60.026c43.169,1.663 49.31,20.164 63.9,20.164c12.158,0 20.972,-6.687 26.443,-20.061c5.471,-13.374 10.03,-33.434 13.678,-60.182l41.945,0c-2.432,25.532 -3.951,55.623 -4.559,90.273c-0.608,34.65 -1.216,79.938 -1.824,135.865c-0.608,55.926 -0.912,17.754 -0.912,102.86l-41.945,0c-2.335,-28.16 0.663,-39.931 -14.017,-117.424c-13.558,-71.568 -43.879,-119.367 -87.015,-122.125c-95.363,-6.096 -154.399,127.215 -137.745,254.648c25.659,196.337 261.774,243.282 261.774,243.282Z" style="fill:#f3f3f3;fill-rule:nonzero;"/><path d="M431.864,1430.461c-9.356,-13.268 -22.688,-23.172 -38.249,-30.06l0,-702.744l38.249,7.253l-0,725.551Z" style="fill:#f3f3f3;"/><path d="M156.215,1548.698c-16.762,-63.065 45.747,-116.401 108.812,-133.163c63.065,-16.762 147.443,-2.466 164.205,60.599c16.762,63.065 -49.57,116.663 -112.636,133.425c-63.065,16.762 -143.619,2.204 -160.381,-60.861Z" style="fill:#f4c542;"/></svg>